HIERARCHY
ROOT Hips
{
	OFFSET 55.541302 -5.155856 98.056503
	CHANNELS 6 Xposition Yposition Zposition Xrotation Yrotation Zrotation
	JOINT spine
	{
		OFFSET 0.000000 -0.477352 8.301041
		CHANNELS 3 Xrotation Yrotation Zrotation
		JOINT spine1
		{
			OFFSET 0.000000 -0.000002 10.456497
			CHANNELS 3 Xrotation Yrotation Zrotation
			JOINT spine2
			{
				OFFSET 0.000000 -0.000001 10.019203
				CHANNELS 3 Xrotation Yrotation Zrotation
				JOINT Neck
				{
					OFFSET 0.000000 -1.226414 25.723503
					CHANNELS 3 Xrotation Yrotation Zrotation
					JOINT Head
					{
						OFFSET 0.000000 -0.000001 7.771744
						CHANNELS 3 Xrotation Yrotation Zrotation
						End Site
						{
							OFFSET 0.000000 6.203937 18.811996
						}
					}
				}
				JOINT RightShoulder
				{
					OFFSET -4.218800 0.587437 10.820000
					CHANNELS 3 Xrotation Yrotation Zrotation
					JOINT RightArm
					{
						OFFSET 0.000000 -0.000002 14.191406
						CHANNELS 3 Xrotation Yrotation Zrotation
						JOINT RightArmRoll
						{
							OFFSET 0.000000 -0.000001 7.164078
							CHANNELS 3 Xrotation Yrotation Zrotation
							JOINT RightForeArm
							{
								OFFSET 0.000000 -0.000003 20.866501
								CHANNELS 3 Xrotation Yrotation Zrotation
								JOINT RightForeArmRoll
								{
									OFFSET 0.000000 -0.000001 8.039215
									CHANNELS 3 Xrotation Yrotation Zrotation
									JOINT RightHand
									{
										OFFSET 0.000000 -0.000003 16.132996
										CHANNELS 3 Xrotation Yrotation Zrotation
										End Site
										{
											OFFSET 0.000000 0.000000 0.100006
										}
									}
								}
							}
						}
					}
				}
				JOINT LeftShoulder
				{
					OFFSET 4.218800 0.587437 10.820000
					CHANNELS 3 Xrotation Yrotation Zrotation
					JOINT LeftArm
					{
						OFFSET 0.000000 -0.000002 14.191406
						CHANNELS 3 Xrotation Yrotation Zrotation
						JOINT LeftArmRoll
						{
							OFFSET 0.000000 -0.000001 7.164078
							CHANNELS 3 Xrotation Yrotation Zrotation
							JOINT LeftForeArm
							{
								OFFSET 0.000000 -0.000003 20.866501
								CHANNELS 3 Xrotation Yrotation Zrotation
								JOINT LeftForeArmRoll
								{
									OFFSET 0.000000 -0.000001 8.039215
									CHANNELS 3 Xrotation Yrotation Zrotation
									JOINT LeftHand
									{
										OFFSET 0.000000 -0.000003 16.132996
										CHANNELS 3 Xrotation Yrotation Zrotation
										End Site
										{
											OFFSET 0.000000 0.000000 0.100006
										}
									}
								}
							}
						}
					}
				}
			}
		}
	}
	JOINT RightUpLeg
	{
		OFFSET -7.357731 1.131820 -1.349213
		CHANNELS 3 Xrotation Yrotation Zrotation
		JOINT RightUpLegRoll
		{
			OFFSET 0.000000 -0.000003 18.916801
			CHANNELS 3 Xrotation Yrotation Zrotation
			JOINT RightLeg
			{
				OFFSET 0.000000 0.000004 -23.425598
				CHANNELS 3 Xrotation Yrotation Zrotation
				JOINT RightLegRoll
				{
					OFFSET 0.000000 -0.000004 23.502296
					CHANNELS 3 Xrotation Yrotation Zrotation
					JOINT RightFoot
					{
						OFFSET 0.000000 -0.000003 19.561707
						CHANNELS 3 Xrotation Yrotation Zrotation
						JOINT RightToeBase
						{
							OFFSET 0.000000 -0.000003 16.352600
							CHANNELS 3 Xrotation Yrotation Zrotation
							End Site
							{
								OFFSET 0.006931 0.912836 7.919434
							}
						}
					}
				}
			}
		}
	}
	JOINT LeftUpLeg
	{
		OFFSET 7.357731 1.131820 -1.349213
		CHANNELS 3 Xrotation Yrotation Zrotation
		JOINT LeftUpLegRoll
		{
			OFFSET 0.000000 -0.000003 18.916901
			CHANNELS 3 Xrotation Yrotation Zrotation
			JOINT LeftLeg
			{
				OFFSET 0.000000 -0.000004 23.425507
				CHANNELS 3 Xrotation Yrotation Zrotation
				JOINT LeftLegRoll
				{
					OFFSET 0.000000 -0.000004 23.719498
					CHANNELS 3 Xrotation Yrotation Zrotation
					JOINT LeftFoot
					{
						OFFSET 0.000000 -0.000003 19.344406
						CHANNELS 3 Xrotation Yrotation Zrotation
						JOINT LeftToeBase
						{
							OFFSET 0.000000 -0.000003 16.352600
							CHANNELS 3 Xrotation Yrotation Zrotation
							End Site
							{
								OFFSET -0.031063 0.912835 7.919434
							}
						}
					}
				}
			}
		}
	}
}
MOTION
Frames: 6
Frame Time: 0.041667
50.336296 -6.814943 98.615997 -2.553780 -2.942350 79.794429 -2.441551 0.559827 0.755753 -0.887510 1.083730 1.535538 0.757447 1.102143 1.522371 19.022598 -1.690604 -6.717268 -2.370484 -5.935043 -6.274440 -7.543765 -51.510415 -8.325172 81.886571 5.210052 118.613871 -0.000001 -0.000007 -0.000006 51.423063 15.874207 3.222064 0.000000 0.000002 -3.005301 -4.999836 -7.999197 -0.000163 -7.891749 64.774727 9.733711 104.059202 63.156697 -77.503598 -0.000002 -0.000000 0.000003 76.881791 5.426855 -1.637556 -0.000002 -0.000009 3.000013 -5.000196 7.998695 0.000009 9.206547 -178.336690 6.264804 179.999991 -0.000005 -1.574997 155.723354 -6.883591 -2.586212 -0.000011 -0.000001 0.398403 68.117306 6.811113 2.386308 37.627014 -7.613150 -0.397676 -9.250527 176.288767 2.095015 -0.000003 -0.000005 -1.014351 -14.906406 3.472928 1.301489 0.000000 0.000001 -0.200366 69.783701 -6.874307 -2.134935 25.456948 7.355624 -0.000016 
50.383595 -6.819878 98.638397 -2.540184 -2.982721 79.906533 -2.430169 0.560690 0.753551 -0.864719 1.086336 1.530716 0.780242 1.104687 1.517528 19.091031 -1.328660 -6.760984 -2.446275 -6.243551 -6.294727 -7.480672 -50.787620 -8.190453 82.496869 4.943328 118.098151 -0.000001 -0.000009 -0.000005 49.599492 15.681817 3.218293 -0.000004 0.000001 -3.005300 -4.999844 -7.999197 -0.000162 -8.106302 64.878041 9.986149 104.102745 63.221918 -77.538268 -0.000003 0.000003 0.000000 76.911113 5.400085 -1.618244 -0.000003 -0.000010 3.000012 -5.000198 7.998689 0.000005 9.196826 -178.275451 6.333785 179.999991 -0.000004 -1.581010 155.584469 -6.877953 -2.601665 -0.000005 -0.000002 0.401997 68.102136 6.810211 2.388571 37.527023 -7.601254 -0.358313 -9.168596 176.313574 2.108147 -0.000004 -0.000004 -1.015171 -14.851434 3.468765 1.298560 -0.000000 0.000001 -0.199974 69.802846 -6.874237 -2.133737 25.456950 7.355624 -0.000016 
50.468201 -6.881838 98.656807 -2.527729 -3.022753 80.014519 -2.418685 0.561064 0.751142 -0.841758 1.088103 1.525396 0.803205 1.106381 1.512190 19.154977 -0.974703 -6.801752 -2.517166 -6.541437 -6.312743 -7.422698 -50.038219 -8.058503 83.105350 4.609484 117.509539 -0.000001 -0.000011 -0.000005 47.794686 15.414134 3.168850 -0.000002 0.000002 -3.005301 -4.999839 -7.999196 -0.000161 -8.321951 64.974510 10.239038 104.164613 63.291162 -77.599405 -0.000004 0.000002 0.000003 76.936835 5.372993 -1.598482 -0.000002 -0.000012 3.000010 -5.000200 7.998689 0.000005 9.184989 -178.214184 6.402439 179.999991 -0.000004 -1.586005 155.443043 -6.870299 -2.616596 -0.000008 0.000000 0.405653 68.086966 6.809377 2.390744 37.422333 -7.588926 -0.316876 -9.086258 176.336414 2.120902 -0.000004 -0.000005 -1.016030 -14.796351 3.464374 1.295647 -0.000000 0.000001 -0.199617 69.822005 -6.874190 -2.132441 25.456947 7.355623 -0.000016 
50.495499 -6.868932 98.673805 -2.516546 -3.062308 80.118775 -2.407096 0.560995 0.748631 -0.818551 1.089098 1.519811 0.826416 1.107294 1.506591 19.213397 -0.627326 -6.840224 -2.582573 -6.830722 -6.328899 -7.368460 -49.269426 -7.927899 83.707363 4.219042 116.860930 -0.000004 -0.000007 -0.000008 46.014749 15.085677 3.075460 -0.000005 0.000002 -3.005302 -4.999844 -7.999196 -0.000162 -8.538284 65.065564 10.492025 104.240107 63.363569 -77.680889 -0.000002 -0.000000 0.000002 76.959655 5.345911 -1.578369 -0.000002 -0.000007 3.000012 -5.000200 7.998687 0.000004 9.171149 -178.151906 6.470734 179.999991 -0.000005 -1.592004 155.299650 -6.862497 -2.632741 -0.000008 -0.000002 0.409357 68.071926 6.808544 2.392809 37.312657 -7.576313 -0.273986 -9.003825 176.358312 2.133050 -0.000003 -0.000005 -1.016931 -14.741573 3.459751 1.292765 -0.000000 0.000001 -0.199292 69.841157 -6.874133 -2.131044 25.456950 7.355623 -0.000016 
50.543892 -6.885574 98.684906 -2.506785 -3.101207 80.219698 -2.395336 0.560531 0.746115 -0.795018 1.089365 1.514155 0.849950 1.107498 1.500941 19.265245 -0.285084 -6.877072 -2.641898 -7.113432 -6.343566 -7.316540 -48.488240 -7.797200 84.298687 3.783218 116.162352 -0.000002 -0.000010 -0.000003 44.265831 14.709799 2.941462 -0.000005 0.000001 -3.005302 -4.999843 -7.999196 -0.000161 -8.754878 65.152628 10.744735 104.324692 63.438353 -77.776901 -0.000004 0.000002 0.000003 76.979886 5.319331 -1.558462 -0.000003 -0.000013 3.000011 -5.000198 7.998693 0.000008 9.155385 -178.090612 6.538108 179.999991 -0.000005 -1.597003 155.154577 -6.853648 -2.647643 -0.000008 -0.000000 0.413089 68.057077 6.807689 2.394959 37.198231 -7.563572 -0.230208 -8.921575 176.378229 2.144645 -0.000004 -0.000005 -1.017861 -14.686990 3.454887 1.289901 -0.000000 0.000001 -0.198989 69.860097 -6.874061 -2.129758 25.456950 7.355624 -0.000016 
50.585495 -6.895512 98.687897 -2.498553 -3.139318 80.317984 -2.383385 0.559723 0.743700 -0.771083 1.089001 1.508665 0.873889 1.107051 1.495465 19.309508 0.053443 -6.912928 -2.694526 -7.391548 -6.357162 -7.265547 -47.701867 -7.665089 84.875858 3.313784 115.426522 -0.000001 -0.000009 -0.000006 42.554192 14.298672 2.772228 0.000000 0.000000 -3.005299 -4.999843 -7.999197 -0.000162 -8.971443 65.237322 10.996970 104.413778 63.515070 -77.881533 0.000001 -0.000001 0.000003 76.998403 5.293542 -1.538980 -0.000002 -0.000009 3.000013 -5.000199 7.998689 0.000007 9.137804 -178.030301 6.604361 179.999991 -0.000005 -1.602003 155.008438 -6.843788 -2.662235 -0.000008 -0.000001 0.416832 68.042256 6.806939 2.396926 37.078939 -7.550827 -0.186148 -8.839797 176.397190 2.155461 -0.000004 -0.000004 -1.018800 -14.632705 3.449751 1.287040 -0.000000 0.000001 -0.198702 69.878935 -6.874010 -2.128383 25.456948 7.355623 -0.000016 
